<svg xmlns="http://www.w3.org/2000/svg" width="47" height="41" viewBox="0 0 47 41" fill="none">
  <path d="M36.7495 0H25.8876C20.6475 0 16.3834 4.26411 16.3834 9.50417C16.3834 14.2841 19.9303 18.2513 24.5298 18.9116V23.0816C24.5298 23.6304 24.8599 24.1264 25.3678 24.3358C25.8686 24.5448 26.4561 24.4328 26.8476 24.0415L31.8807 19.0083H36.7495C41.9895 19.0083 46.3442 14.7442 46.3442 9.50417C46.3442 4.26411 41.9895 0 36.7495 0ZM25.8876 10.8617C25.1375 10.8617 24.5298 10.2538 24.5298 9.50399C24.5298 8.75415 25.1375 8.14625 25.8876 8.14625C26.6374 8.14625 27.2453 8.75415 27.2453 9.50399C27.2453 10.2538 26.6374 10.8617 25.8876 10.8617ZM31.3185 10.8617C30.5685 10.8617 29.9608 10.2538 29.9608 9.50399C29.9608 8.75415 30.5685 8.14625 31.3185 8.14625C32.0683 8.14625 32.6763 8.75415 32.6763 9.50399C32.6763 10.2538 32.0683 10.8617 31.3185 10.8617ZM36.7495 10.8617C35.9995 10.8617 35.3917 10.2538 35.3917 9.50399C35.3917 8.75415 35.9995 8.14625 36.7495 8.14625C37.4993 8.14625 38.1072 8.75415 38.1072 9.50399C38.1072 10.2538 37.4993 10.8617 36.7495 10.8617Z" fill="#FF3811"/>
  <path d="M30.5039 40.7322C32.7499 40.7322 34.5771 38.905 34.5771 36.6589V31.228C34.5771 30.6433 34.2032 30.1248 33.6489 29.9405L25.5216 27.225C25.1238 27.0911 24.6889 27.1521 24.3389 27.3828L20.8836 29.6859C17.224 27.941 12.8817 23.5986 11.1367 19.939L13.4398 16.4837C13.6718 16.1349 13.7302 15.6987 13.5976 15.301L10.8821 7.17366C10.6979 6.61953 10.1794 6.24561 9.59469 6.24561H4.07322C1.82715 6.24561 0 8.05366 0 10.2997C0 25.9429 14.8607 40.7322 30.5039 40.7322Z" fill="white"/>
</svg>